<svg width="256" height="256" viewBox="0 0 788 788" fill="none" xmlns="http://www.w3.org/2000/svg">
<rect x="0.5" y="0.5" width="787" height="787" fill="black"/>
<rect x="0.5" y="0.5" width="787" height="787" stroke="black"/>
<path fill-rule="evenodd" clip-rule="evenodd" d="M328.237 605.74L243.38 545.058C220.153 528.448 208.54 520.143 202.27 507.945C196 495.747 196 481.459 196 452.883V342.921C196 333.821 196 326.169 196.202 319.573L365.714 440.793V631C355.623 625.324 343.849 616.904 328.237 605.74ZM422.286 631C432.377 625.324 444.151 616.904 459.763 605.74L544.62 545.058C567.847 528.448 579.46 520.143 585.73 507.945C592 495.747 592 481.459 592 452.883V342.921C592 333.821 592 326.169 591.798 319.573L422.286 440.793V631ZM567.322 267.475L394 391.42L220.678 267.475C226.654 262.707 234.088 257.391 243.38 250.746L328.237 190.064C359.993 167.355 375.871 156 394 156C412.129 156 428.007 167.355 459.763 190.064L544.62 250.746C553.913 257.391 561.346 262.707 567.322 267.475Z" fill="#FF8800"/>
</svg>
